<svg xmlns="http://www.w3.org/2000/svg" width="314.334" height="128.136" viewBox="0 0 314.334 128.136">
  <path id="Logo" d="M717.52-127.828l-9.114-28.5H667.983l-7.534,28.5H628.46l-21.266-82.207a62.315,62.315,0,0,1-1.64-9l-24.1,91.2H547.326l-22.833-86.85q-.468,2.539-1.035,4.643l-21.8,82.207h-33.33L434.639-255.964h31.542l18.049,85.335a101.756,101.756,0,0,1,1.7,14.654h.536a70.889,70.889,0,0,1,2.591-15.012l23.233-84.977h32.892l12.854,60.771,6.169,25.279a85.365,85.365,0,0,1,1.628,9.823,77.543,77.543,0,0,1,2.225-10.9l2.251-8.234,15.878-76.743h36.021l21,86.05a99.89,99.89,0,0,1,1.949,12.705l.935-4.613q.493-4.282,1.405-8.629l17.377-83.99.305-1.506h.006l0-.018h29.13v0l9.087,0,45.572,128.136Zm-15.727-50.665-13.761-43.07a45.668,45.668,0,0,1-1.342-5.547L673.84-178.493Z" transform="translate(-434.639 255.964)" fill="#fff"/>
</svg>
